# xmcd
#
# Track frame offsets:
#	150
#	21390
#	51280
#	53276
#	72380
#	80908
#	97318
#	102001
#	108694
#	116429
#	142435
#	160266
#	163366
#	178756
#	182028
#	218535
#	237245
#	238308
#	276550
#	279230
#
# Disc length: 3870 seconds
#
# Revision: 0
# Processed by: cddbd v1.5.2PL0 Copyright (c) Steve Scherf et al.
# Submitted via: EasyCDDAExtractor 10.5.1.1
#
DISCID=380f1c14
DTITLE=Junior Wells - Live At Theresa's 1975
DYEAR=2006
DGENRE=Blues
TTITLE0=Little By Little
TTITLE1=Snatch It Back And Hold It
TTITLE2=Talk
TTITLE3=Love Her With A Feeling
TTITLE4=Talk
TTITLE5=Juke
TTITLE6=Talk
TTITLE7=Happy Birthday
TTITLE8=Talk
TTITLE9=Scratch My Back
TTITLE10=Help The Poor
TTITLE11=Talk
TTITLE12=Come On In This House
TTITLE13=Talk
TTITLE14=What My Mama Told Me
TTITLE15=Key To The Highway
TTITLE16=Talk
TTITLE17=Goin' Down Slow
TTITLE18=Talk
TTITLE19=Messin' With The Kid
EXTD=
EXTT0=
EXTT1=
EXTT2=
EXTT3=
EXTT4=
EXTT5=
EXTT6=
EXTT7=
EXTT8=
EXTT9=
EXTT10=
EXTT11=
EXTT12=
EXTT13=
EXTT14=
EXTT15=
EXTT16=
EXTT17=
EXTT18=
EXTT19=
PLAYORDER=
